<mxfile host="app.diagrams.net" agent="Mozilla/5.0 (Windows NT 10.0; Win64; x64) AppleWebKit/537.36 (KHTML, like Gecko) Chrome/130.0.0.0 Safari/537.36" version="24.8.2">
  <diagram name="Page-1" id="L4RTZNAeBzalKZbTHXtW">
    <mxGraphModel dx="1050" dy="1622" grid="1" gridSize="10" guides="1" tooltips="1" connect="1" arrows="1" fold="1" page="1" pageScale="1" pageWidth="850" pageHeight="1100" math="0" shadow="0">
      <root>
        <mxCell id="0" />
        <mxCell id="1" parent="0" />
        <mxCell id="1hAYHwrO9_7aJ_0K3y9Q-2" value="Inisialisasi pin A0 sebagai input suhu" style="whiteSpace=wrap;strokeWidth=2;" vertex="1" parent="1">
          <mxGeometry x="119" y="118" width="240" height="66" as="geometry" />
        </mxCell>
        <mxCell id="1hAYHwrO9_7aJ_0K3y9Q-3" value="Inisialisasi pin 3 sebagai output LED" style="whiteSpace=wrap;strokeWidth=2;" vertex="1" parent="1">
          <mxGeometry x="123" y="234" width="231" height="66" as="geometry" />
        </mxCell>
        <mxCell id="1hAYHwrO9_7aJ_0K3y9Q-4" value="Mulai Serial pada 9600 baud" style="whiteSpace=wrap;strokeWidth=2;" vertex="1" parent="1">
          <mxGeometry x="127" y="350" width="222" height="66" as="geometry" />
        </mxCell>
        <mxCell id="1hAYHwrO9_7aJ_0K3y9Q-5" value="Loop" style="rhombus;strokeWidth=2;whiteSpace=wrap;" vertex="1" parent="1">
          <mxGeometry x="197" y="466" width="83" height="83" as="geometry" />
        </mxCell>
        <mxCell id="1hAYHwrO9_7aJ_0K3y9Q-6" value="Baca nilai analog dari A0" style="whiteSpace=wrap;strokeWidth=2;" vertex="1" parent="1">
          <mxGeometry x="41" y="599" width="236" height="48" as="geometry" />
        </mxCell>
        <mxCell id="1hAYHwrO9_7aJ_0K3y9Q-7" value="Hitung tegangan dari nilai analog" style="whiteSpace=wrap;strokeWidth=2;" vertex="1" parent="1">
          <mxGeometry x="36" y="697" width="246" height="66" as="geometry" />
        </mxCell>
        <mxCell id="1hAYHwrO9_7aJ_0K3y9Q-8" value="Hitung suhu dari tegangan" style="whiteSpace=wrap;strokeWidth=2;" vertex="1" parent="1">
          <mxGeometry x="35" y="813" width="248" height="48" as="geometry" />
        </mxCell>
        <mxCell id="1hAYHwrO9_7aJ_0K3y9Q-9" value="Cetak suhu dan tegangan ke Serial Monitor" style="whiteSpace=wrap;strokeWidth=2;" vertex="1" parent="1">
          <mxGeometry x="39" y="912" width="240" height="66" as="geometry" />
        </mxCell>
        <mxCell id="1hAYHwrO9_7aJ_0K3y9Q-10" value="Suhu &gt;= 27?" style="rhombus;strokeWidth=2;whiteSpace=wrap;" vertex="1" parent="1">
          <mxGeometry x="82" y="1028" width="155" height="155" as="geometry" />
        </mxCell>
        <mxCell id="1hAYHwrO9_7aJ_0K3y9Q-11" value="LED ON" style="whiteSpace=wrap;strokeWidth=2;" vertex="1" parent="1">
          <mxGeometry x="20" y="1255" width="112" height="48" as="geometry" />
        </mxCell>
        <mxCell id="1hAYHwrO9_7aJ_0K3y9Q-12" value="LED OFF" style="whiteSpace=wrap;strokeWidth=2;" vertex="1" parent="1">
          <mxGeometry x="182" y="1255" width="119" height="48" as="geometry" />
        </mxCell>
        <mxCell id="1hAYHwrO9_7aJ_0K3y9Q-13" value="Tunggu 500 ms" style="whiteSpace=wrap;strokeWidth=2;" vertex="1" parent="1">
          <mxGeometry x="159" y="1354" width="165" height="48" as="geometry" />
        </mxCell>
        <mxCell id="1hAYHwrO9_7aJ_0K3y9Q-14" value="" style="curved=1;startArrow=none;endArrow=block;exitX=0.5;exitY=1.01;entryX=0.5;entryY=0.01;rounded=0;" edge="1" parent="1" target="1hAYHwrO9_7aJ_0K3y9Q-2">
          <mxGeometry relative="1" as="geometry">
            <Array as="points" />
            <mxPoint x="238.5" y="68" as="sourcePoint" />
          </mxGeometry>
        </mxCell>
        <mxCell id="1hAYHwrO9_7aJ_0K3y9Q-15" value="" style="curved=1;startArrow=none;endArrow=block;exitX=0.5;exitY=1.01;entryX=0.5;entryY=0.01;rounded=0;" edge="1" parent="1" source="1hAYHwrO9_7aJ_0K3y9Q-2" target="1hAYHwrO9_7aJ_0K3y9Q-3">
          <mxGeometry relative="1" as="geometry">
            <Array as="points" />
          </mxGeometry>
        </mxCell>
        <mxCell id="1hAYHwrO9_7aJ_0K3y9Q-16" value="" style="curved=1;startArrow=none;endArrow=block;exitX=0.5;exitY=1.01;entryX=0.5;entryY=0.01;rounded=0;" edge="1" parent="1" source="1hAYHwrO9_7aJ_0K3y9Q-3" target="1hAYHwrO9_7aJ_0K3y9Q-4">
          <mxGeometry relative="1" as="geometry">
            <Array as="points" />
          </mxGeometry>
        </mxCell>
        <mxCell id="1hAYHwrO9_7aJ_0K3y9Q-17" value="" style="curved=1;startArrow=none;endArrow=block;exitX=0.5;exitY=1.01;entryX=0.5;entryY=0;rounded=0;" edge="1" parent="1" source="1hAYHwrO9_7aJ_0K3y9Q-4" target="1hAYHwrO9_7aJ_0K3y9Q-5">
          <mxGeometry relative="1" as="geometry">
            <Array as="points" />
          </mxGeometry>
        </mxCell>
        <mxCell id="1hAYHwrO9_7aJ_0K3y9Q-18" value="" style="curved=1;startArrow=none;endArrow=block;exitX=0;exitY=0.92;entryX=0.5;entryY=0;rounded=0;" edge="1" parent="1" source="1hAYHwrO9_7aJ_0K3y9Q-5" target="1hAYHwrO9_7aJ_0K3y9Q-6">
          <mxGeometry relative="1" as="geometry">
            <Array as="points">
              <mxPoint x="159" y="574" />
            </Array>
          </mxGeometry>
        </mxCell>
        <mxCell id="1hAYHwrO9_7aJ_0K3y9Q-19" value="" style="curved=1;startArrow=none;endArrow=block;exitX=0.5;exitY=1.01;entryX=0.5;entryY=0.01;rounded=0;" edge="1" parent="1" source="1hAYHwrO9_7aJ_0K3y9Q-6" target="1hAYHwrO9_7aJ_0K3y9Q-7">
          <mxGeometry relative="1" as="geometry">
            <Array as="points" />
          </mxGeometry>
        </mxCell>
        <mxCell id="1hAYHwrO9_7aJ_0K3y9Q-20" value="" style="curved=1;startArrow=none;endArrow=block;exitX=0.5;exitY=1.01;entryX=0.5;entryY=0.01;rounded=0;" edge="1" parent="1" source="1hAYHwrO9_7aJ_0K3y9Q-7" target="1hAYHwrO9_7aJ_0K3y9Q-8">
          <mxGeometry relative="1" as="geometry">
            <Array as="points" />
          </mxGeometry>
        </mxCell>
        <mxCell id="1hAYHwrO9_7aJ_0K3y9Q-21" value="" style="curved=1;startArrow=none;endArrow=block;exitX=0.5;exitY=1.02;entryX=0.5;entryY=0;rounded=0;" edge="1" parent="1" source="1hAYHwrO9_7aJ_0K3y9Q-8" target="1hAYHwrO9_7aJ_0K3y9Q-9">
          <mxGeometry relative="1" as="geometry">
            <Array as="points" />
          </mxGeometry>
        </mxCell>
        <mxCell id="1hAYHwrO9_7aJ_0K3y9Q-22" value="" style="curved=1;startArrow=none;endArrow=block;exitX=0.5;exitY=1;entryX=0.5;entryY=0;rounded=0;" edge="1" parent="1" source="1hAYHwrO9_7aJ_0K3y9Q-9" target="1hAYHwrO9_7aJ_0K3y9Q-10">
          <mxGeometry relative="1" as="geometry">
            <Array as="points" />
          </mxGeometry>
        </mxCell>
        <mxCell id="1hAYHwrO9_7aJ_0K3y9Q-23" value="Ya" style="curved=1;startArrow=none;endArrow=block;exitX=0.13;exitY=1;entryX=0.5;entryY=0.01;rounded=0;" edge="1" parent="1" source="1hAYHwrO9_7aJ_0K3y9Q-10" target="1hAYHwrO9_7aJ_0K3y9Q-11">
          <mxGeometry relative="1" as="geometry">
            <Array as="points">
              <mxPoint x="76" y="1219" />
            </Array>
          </mxGeometry>
        </mxCell>
        <mxCell id="1hAYHwrO9_7aJ_0K3y9Q-24" value="Tidak" style="curved=1;startArrow=none;endArrow=block;exitX=0.86;exitY=1;entryX=0.5;entryY=0.01;rounded=0;" edge="1" parent="1" source="1hAYHwrO9_7aJ_0K3y9Q-10" target="1hAYHwrO9_7aJ_0K3y9Q-12">
          <mxGeometry relative="1" as="geometry">
            <Array as="points">
              <mxPoint x="242" y="1219" />
            </Array>
          </mxGeometry>
        </mxCell>
        <mxCell id="1hAYHwrO9_7aJ_0K3y9Q-25" value="" style="curved=1;startArrow=none;endArrow=block;exitX=0.5;exitY=1.01;entryX=0.01;entryY=-0.01;rounded=0;" edge="1" parent="1" source="1hAYHwrO9_7aJ_0K3y9Q-11" target="1hAYHwrO9_7aJ_0K3y9Q-13">
          <mxGeometry relative="1" as="geometry">
            <Array as="points">
              <mxPoint x="76" y="1329" />
            </Array>
          </mxGeometry>
        </mxCell>
        <mxCell id="1hAYHwrO9_7aJ_0K3y9Q-26" value="" style="curved=1;startArrow=none;endArrow=block;exitX=0.5;exitY=1.01;entryX=0.5;entryY=-0.01;rounded=0;" edge="1" parent="1" source="1hAYHwrO9_7aJ_0K3y9Q-12" target="1hAYHwrO9_7aJ_0K3y9Q-13">
          <mxGeometry relative="1" as="geometry">
            <Array as="points" />
          </mxGeometry>
        </mxCell>
        <mxCell id="1hAYHwrO9_7aJ_0K3y9Q-27" value="" style="curved=1;startArrow=none;endArrow=block;exitX=0.88;exitY=-0.01;entryX=1;entryY=0.76;rounded=0;" edge="1" parent="1" source="1hAYHwrO9_7aJ_0K3y9Q-13" target="1hAYHwrO9_7aJ_0K3y9Q-5">
          <mxGeometry relative="1" as="geometry">
            <Array as="points">
              <mxPoint x="369" y="1329" />
              <mxPoint x="369" y="574" />
            </Array>
          </mxGeometry>
        </mxCell>
        <mxCell id="1hAYHwrO9_7aJ_0K3y9Q-28" value="Mulai" style="ellipse;whiteSpace=wrap;html=1;" vertex="1" parent="1">
          <mxGeometry x="178" y="-10" width="120" height="80" as="geometry" />
        </mxCell>
      </root>
    </mxGraphModel>
  </diagram>
</mxfile>
